# MagicaVoxel @ Ephtracy

# group
o 

# material
mtllib toldo-0.mtl
usemtl palette

# normals
vn -1 0 0
vn 1 0 0
vn 0 0 1
vn 0 0 -1
vn 0 -1 0
vn 0 1 0

# texcoords
vt 0.255859 0.5
vt 0.634766 0.5
vt 0.974609 0.5

# verts
v -2.7 0.1 -14.3
v -2.7 0.1 -21.7
v -2.7 6.7 -14.3
v -2.7 6.7 -21.7
v -2.7 6.8 -14.3
v -2.7 6.8 -21.7
v -2.2 6.8 -14.3
v -2.2 6.8 -21.7
v -2.2 6.9 -14.3
v -2.2 6.9 -21.7
v -2.1 0.1 -14.4
v -2.1 0.1 -14.6
v -2.1 0.1 -17.9
v -2.1 0.1 -18.1
v -2.1 0.1 -21.4
v -2.1 0.1 -21.6
v -2.1 6.8 -14.4
v -2.1 6.8 -14.6
v -2.1 6.8 -17.9
v -2.1 6.8 -18.1
v -2.1 6.8 -21.4
v -2.1 6.8 -21.6
v -1.7 6.9 -14.3
v -1.7 6.9 -21.7
v -1.7 7 -14.3
v -1.7 7 -21.7
v -1.1 7 -14.3
v -1.1 7 -21.7
v -1.1 7.1 -14.3
v -1.1 7.1 -21.7
v -0.6 7.1 -14.3
v -0.6 7.1 -21.7
v -0.6 7.2 -14.3
v -0.6 7.2 -21.7
v 0 7.2 -14.3
v 0 7.2 -21.7
v 0 7.3 -14.3
v 0 7.3 -21.7
v 0.5 7.3 -14.3
v 0.5 7.3 -21.7
v 0.5 7.4 -14.3
v 0.5 7.4 -21.7
v 1.1 7.4 -14.3
v 1.1 7.4 -21.7
v 1.1 7.5 -14.3
v 1.1 7.5 -21.7
v 1.8 7.5 -14.3
v 1.8 7.5 -21.7
v 1.8 7.6 -14.3
v 1.8 7.6 -21.7
v 2.4 7.6 -14.3
v 2.4 7.6 -21.7
v 2.4 7.7 -14.3
v 2.4 7.7 -21.7
v 3.1 7.7 -14.3
v 3.1 7.7 -21.7
v 3.1 7.8 -14.3
v 3.1 7.8 -21.7
v 3.5 0.1 -14.4
v 3.5 0.1 -14.6
v 3.5 0.1 -17.9
v 3.5 0.1 -18.1
v 3.5 0.1 -21.4
v 3.5 0.1 -21.6
v 3.5 7.7 -14.4
v 3.5 7.7 -14.6
v 3.5 7.7 -17.9
v 3.5 7.7 -18.1
v 3.5 7.7 -21.4
v 3.5 7.7 -21.6
v -2.6 0.1 -14.4
v -2.6 0.1 -21.6
v -2.6 6.7 -14.4
v -2.6 6.7 -21.6
v -2.2 6.7 -14.4
v -2.2 6.7 -21.6
v -2.2 6.8 -14.4
v -2.2 6.8 -21.6
v -1.9 0.1 -14.3
v -1.9 0.1 -14.4
v -1.9 0.1 -14.6
v -1.9 0.1 -17.9
v -1.9 0.1 -18.1
v -1.9 0.1 -21.4
v -1.9 0.1 -21.6
v -1.9 0.1 -21.7
v -1.9 6.8 -14.3
v -1.9 6.8 -14.4
v -1.9 6.8 -14.6
v -1.9 6.8 -17.9
v -1.9 6.8 -18.1
v -1.9 6.8 -21.4
v -1.9 6.8 -21.6
v -1.9 6.8 -21.7
v -1.7 6.8 -14.3
v -1.7 6.8 -21.7
v -1.7 6.9 -14.3
v -1.7 6.9 -21.7
v -1.1 6.9 -14.3
v -1.1 6.9 -21.7
v -1.1 7 -14.3
v -1.1 7 -21.7
v -0.6 7 -14.3
v -0.6 7 -21.7
v -0.6 7.1 -14.3
v -0.6 7.1 -21.7
v 0 7.1 -14.3
v 0 7.1 -21.7
v 0 7.2 -14.3
v 0 7.2 -21.7
v 0.5 7.2 -14.3
v 0.5 7.2 -21.7
v 0.5 7.3 -14.3
v 0.5 7.3 -21.7
v 1.1 7.3 -14.3
v 1.1 7.3 -21.7
v 1.1 7.4 -14.3
v 1.1 7.4 -21.7
v 1.8 7.4 -14.3
v 1.8 7.4 -21.7
v 1.8 7.5 -14.3
v 1.8 7.5 -21.7
v 2.4 7.5 -14.3
v 2.4 7.5 -21.7
v 2.4 7.6 -14.3
v 2.4 7.6 -21.7
v 3.1 7.6 -14.3
v 3.1 7.6 -21.7
v 3.1 7.7 -14.3
v 3.1 7.7 -21.7
v 3.7 0.1 -14.4
v 3.7 0.1 -14.6
v 3.7 0.1 -17.9
v 3.7 0.1 -18.1
v 3.7 0.1 -21.4
v 3.7 0.1 -21.6
v 3.7 7.7 -14.4
v 3.7 7.7 -14.6
v 3.7 7.7 -17.9
v 3.7 7.7 -18.1
v 3.7 7.7 -21.4
v 3.7 7.7 -21.6
v 3.9 7.7 -14.3
v 3.9 7.7 -21.7
v 3.9 7.8 -14.3
v 3.9 7.8 -21.7
v -2.7 0.1 -14.3
v -2.7 6.7 -14.3
v -2.7 6.8 -14.3
v -2.2 6.7 -14.3
v -2.2 6.8 -14.3
v -2.2 6.9 -14.3
v -1.9 0.1 -14.3
v -1.9 6.8 -14.3
v -1.7 6.8 -14.3
v -1.7 6.9 -14.3
v -1.7 7 -14.3
v -1.1 6.9 -14.3
v -1.1 7 -14.3
v -1.1 7.1 -14.3
v -0.6 7 -14.3
v -0.6 7.1 -14.3
v -0.6 7.2 -14.3
v 0 7.1 -14.3
v 0 7.2 -14.3
v 0 7.3 -14.3
v 0.5 7.2 -14.3
v 0.5 7.3 -14.3
v 0.5 7.4 -14.3
v 1.1 7.3 -14.3
v 1.1 7.4 -14.3
v 1.1 7.5 -14.3
v 1.8 7.4 -14.3
v 1.8 7.5 -14.3
v 1.8 7.6 -14.3
v 2.4 7.5 -14.3
v 2.4 7.6 -14.3
v 2.4 7.7 -14.3
v 3.1 7.6 -14.3
v 3.1 7.7 -14.3
v 3.1 7.8 -14.3
v 3.9 7.7 -14.3
v 3.9 7.8 -14.3
v 3.5 0.1 -14.4
v 3.5 7.7 -14.4
v 3.7 0.1 -14.4
v 3.7 7.7 -14.4
v -2.1 0.1 -17.9
v -2.1 6.8 -17.9
v -1.9 0.1 -17.9
v -1.9 6.8 -17.9
v 3.5 0.1 -17.9
v 3.5 7.7 -17.9
v 3.7 0.1 -17.9
v 3.7 7.7 -17.9
v -2.1 0.1 -21.4
v -2.1 6.8 -21.4
v -1.9 0.1 -21.4
v -1.9 6.8 -21.4
v 3.5 0.1 -21.4
v 3.5 7.7 -21.4
v 3.7 0.1 -21.4
v 3.7 7.7 -21.4
v -2.6 0.1 -21.6
v -2.6 6.7 -21.6
v -2.2 6.7 -21.6
v -2.2 6.8 -21.6
v -2.1 0.1 -21.6
v -2.1 6.8 -21.6
v -2.6 0.1 -14.4
v -2.6 6.7 -14.4
v -2.2 6.7 -14.4
v -2.2 6.8 -14.4
v -2.1 0.1 -14.4
v -2.1 6.8 -14.4
v -2.1 0.1 -14.6
v -2.1 6.8 -14.6
v -1.9 0.1 -14.6
v -1.9 6.8 -14.6
v 3.5 0.1 -14.6
v 3.5 7.7 -14.6
v 3.7 0.1 -14.6
v 3.7 7.7 -14.6
v -2.1 0.1 -18.1
v -2.1 6.8 -18.1
v -1.9 0.1 -18.1
v -1.9 6.8 -18.1
v 3.5 0.1 -18.1
v 3.5 7.7 -18.1
v 3.7 0.1 -18.1
v 3.7 7.7 -18.1
v 3.5 0.1 -21.6
v 3.5 7.7 -21.6
v 3.7 0.1 -21.6
v 3.7 7.7 -21.6
v -2.7 0.1 -21.7
v -2.7 6.7 -21.7
v -2.7 6.8 -21.7
v -2.2 6.7 -21.7
v -2.2 6.8 -21.7
v -2.2 6.9 -21.7
v -1.9 0.1 -21.7
v -1.9 6.8 -21.7
v -1.7 6.8 -21.7
v -1.7 6.9 -21.7
v -1.7 7 -21.7
v -1.1 6.9 -21.7
v -1.1 7 -21.7
v -1.1 7.1 -21.7
v -0.6 7 -21.7
v -0.6 7.1 -21.7
v -0.6 7.2 -21.7
v 0 7.1 -21.7
v 0 7.2 -21.7
v 0 7.3 -21.7
v 0.5 7.2 -21.7
v 0.5 7.3 -21.7
v 0.5 7.4 -21.7
v 1.1 7.3 -21.7
v 1.1 7.4 -21.7
v 1.1 7.5 -21.7
v 1.8 7.4 -21.7
v 1.8 7.5 -21.7
v 1.8 7.6 -21.7
v 2.4 7.5 -21.7
v 2.4 7.6 -21.7
v 2.4 7.7 -21.7
v 3.1 7.6 -21.7
v 3.1 7.7 -21.7
v 3.1 7.8 -21.7
v 3.9 7.7 -21.7
v 3.9 7.8 -21.7
v -2.7 0.1 -14.3
v -1.9 0.1 -14.3
v -2.6 0.1 -14.4
v -2.1 0.1 -14.4
v -1.9 0.1 -14.4
v 3.5 0.1 -14.4
v 3.7 0.1 -14.4
v -2.1 0.1 -14.6
v -1.9 0.1 -14.6
v 3.5 0.1 -14.6
v 3.7 0.1 -14.6
v -2.1 0.1 -17.9
v -1.9 0.1 -17.9
v 3.5 0.1 -17.9
v 3.7 0.1 -17.9
v -2.1 0.1 -18.1
v -1.9 0.1 -18.1
v 3.5 0.1 -18.1
v 3.7 0.1 -18.1
v -2.1 0.1 -21.4
v -1.9 0.1 -21.4
v 3.5 0.1 -21.4
v 3.7 0.1 -21.4
v -2.6 0.1 -21.6
v -2.1 0.1 -21.6
v -1.9 0.1 -21.6
v 3.5 0.1 -21.6
v 3.7 0.1 -21.6
v -2.7 0.1 -21.7
v -1.9 0.1 -21.7
v -2.6 6.7 -14.4
v -2.2 6.7 -14.4
v -2.6 6.7 -21.6
v -2.2 6.7 -21.6
v -1.9 6.8 -14.3
v -1.7 6.8 -14.3
v -2.2 6.8 -14.4
v -2.1 6.8 -14.4
v -1.9 6.8 -14.4
v -2.1 6.8 -14.6
v -1.9 6.8 -14.6
v -2.1 6.8 -17.9
v -1.9 6.8 -17.9
v -2.1 6.8 -18.1
v -1.9 6.8 -18.1
v -2.1 6.8 -21.4
v -1.9 6.8 -21.4
v -2.2 6.8 -21.6
v -2.1 6.8 -21.6
v -1.9 6.8 -21.6
v -1.9 6.8 -21.7
v -1.7 6.8 -21.7
v -1.7 6.9 -14.3
v -1.1 6.9 -14.3
v -1.7 6.9 -21.7
v -1.1 6.9 -21.7
v -1.1 7 -14.3
v -0.6 7 -14.3
v -1.1 7 -21.7
v -0.6 7 -21.7
v -0.6 7.1 -14.3
v 0 7.1 -14.3
v -0.6 7.1 -21.7
v 0 7.1 -21.7
v 0 7.2 -14.3
v 0.5 7.2 -14.3
v 0 7.2 -21.7
v 0.5 7.2 -21.7
v 0.5 7.3 -14.3
v 1.1 7.3 -14.3
v 0.5 7.3 -21.7
v 1.1 7.3 -21.7
v 1.1 7.4 -14.3
v 1.8 7.4 -14.3
v 1.1 7.4 -21.7
v 1.8 7.4 -21.7
v 1.8 7.5 -14.3
v 2.4 7.5 -14.3
v 1.8 7.5 -21.7
v 2.4 7.5 -21.7
v 2.4 7.6 -14.3
v 3.1 7.6 -14.3
v 2.4 7.6 -21.7
v 3.1 7.6 -21.7
v 3.1 7.7 -14.3
v 3.9 7.7 -14.3
v 3.5 7.7 -14.4
v 3.7 7.7 -14.4
v 3.5 7.7 -14.6
v 3.7 7.7 -14.6
v 3.5 7.7 -17.9
v 3.7 7.7 -17.9
v 3.5 7.7 -18.1
v 3.7 7.7 -18.1
v 3.5 7.7 -21.4
v 3.7 7.7 -21.4
v 3.5 7.7 -21.6
v 3.7 7.7 -21.6
v 3.1 7.7 -21.7
v 3.9 7.7 -21.7
v -2.7 6.8 -14.3
v -2.2 6.8 -14.3
v -2.7 6.8 -21.7
v -2.2 6.8 -21.7
v -2.2 6.9 -14.3
v -1.7 6.9 -14.3
v -2.2 6.9 -21.7
v -1.7 6.9 -21.7
v -1.7 7 -14.3
v -1.1 7 -14.3
v -1.7 7 -21.7
v -1.1 7 -21.7
v -1.1 7.1 -14.3
v -0.6 7.1 -14.3
v -1.1 7.1 -21.7
v -0.6 7.1 -21.7
v -0.6 7.2 -14.3
v 0 7.2 -14.3
v -0.6 7.2 -21.7
v 0 7.2 -21.7
v 0 7.3 -14.3
v 0.5 7.3 -14.3
v 0 7.3 -21.7
v 0.5 7.3 -21.7
v 0.5 7.4 -14.3
v 1.1 7.4 -14.3
v 0.5 7.4 -21.7
v 1.1 7.4 -21.7
v 1.1 7.5 -14.3
v 1.8 7.5 -14.3
v 1.1 7.5 -21.7
v 1.8 7.5 -21.7
v 1.8 7.6 -14.3
v 2.4 7.6 -14.3
v 1.8 7.6 -21.7
v 2.4 7.6 -21.7
v 2.4 7.7 -14.3
v 3.1 7.7 -14.3
v 2.4 7.7 -21.7
v 3.1 7.7 -21.7
v 3.1 7.8 -14.3
v 3.9 7.8 -14.3
v 3.1 7.8 -21.7
v 3.9 7.8 -21.7

# faces
f 3/2/1 2/2/1 1/2/1
f 4/2/1 2/2/1 3/2/1
f 5/1/1 4/1/1 3/1/1
f 6/1/1 4/1/1 5/1/1
f 9/1/1 8/1/1 7/1/1
f 10/1/1 8/1/1 9/1/1
f 17/3/1 12/3/1 11/3/1
f 18/3/1 12/3/1 17/3/1
f 19/3/1 14/3/1 13/3/1
f 20/3/1 14/3/1 19/3/1
f 21/3/1 16/3/1 15/3/1
f 22/3/1 16/3/1 21/3/1
f 25/1/1 24/1/1 23/1/1
f 26/1/1 24/1/1 25/1/1
f 29/1/1 28/1/1 27/1/1
f 30/1/1 28/1/1 29/1/1
f 33/1/1 32/1/1 31/1/1
f 34/1/1 32/1/1 33/1/1
f 37/1/1 36/1/1 35/1/1
f 38/1/1 36/1/1 37/1/1
f 41/1/1 40/1/1 39/1/1
f 42/1/1 40/1/1 41/1/1
f 45/1/1 44/1/1 43/1/1
f 46/1/1 44/1/1 45/1/1
f 49/1/1 48/1/1 47/1/1
f 50/1/1 48/1/1 49/1/1
f 53/1/1 52/1/1 51/1/1
f 54/1/1 52/1/1 53/1/1
f 57/1/1 56/1/1 55/1/1
f 58/1/1 56/1/1 57/1/1
f 65/3/1 60/3/1 59/3/1
f 66/3/1 60/3/1 65/3/1
f 67/3/1 62/3/1 61/3/1
f 68/3/1 62/3/1 67/3/1
f 69/3/1 64/3/1 63/3/1
f 70/3/1 64/3/1 69/3/1
f 71/2/2 72/2/2 73/2/2
f 73/2/2 72/2/2 74/2/2
f 75/1/2 76/1/2 77/1/2
f 77/1/2 76/1/2 78/1/2
f 79/2/2 80/2/2 87/2/2
f 80/3/2 81/3/2 88/3/2
f 87/2/2 80/2/2 88/2/2
f 88/3/2 81/3/2 89/3/2
f 82/3/2 83/3/2 90/3/2
f 90/3/2 83/3/2 91/3/2
f 84/3/2 85/3/2 92/3/2
f 85/2/2 86/2/2 93/2/2
f 92/3/2 85/3/2 93/3/2
f 93/2/2 86/2/2 94/2/2
f 95/1/2 96/1/2 97/1/2
f 97/1/2 96/1/2 98/1/2
f 99/1/2 100/1/2 101/1/2
f 101/1/2 100/1/2 102/1/2
f 103/1/2 104/1/2 105/1/2
f 105/1/2 104/1/2 106/1/2
f 107/1/2 108/1/2 109/1/2
f 109/1/2 108/1/2 110/1/2
f 111/1/2 112/1/2 113/1/2
f 113/1/2 112/1/2 114/1/2
f 115/1/2 116/1/2 117/1/2
f 117/1/2 116/1/2 118/1/2
f 119/1/2 120/1/2 121/1/2
f 121/1/2 120/1/2 122/1/2
f 123/1/2 124/1/2 125/1/2
f 125/1/2 124/1/2 126/1/2
f 127/1/2 128/1/2 129/1/2
f 129/1/2 128/1/2 130/1/2
f 131/3/2 132/3/2 137/3/2
f 137/3/2 132/3/2 138/3/2
f 133/3/2 134/3/2 139/3/2
f 139/3/2 134/3/2 140/3/2
f 135/3/2 136/3/2 141/3/2
f 141/3/2 136/3/2 142/3/2
f 143/1/2 144/1/2 145/1/2
f 145/1/2 144/1/2 146/1/2
f 150/2/3 148/2/3 147/2/3
f 150/1/3 149/1/3 148/1/3
f 151/1/3 149/1/3 150/1/3
f 153/2/3 150/2/3 147/2/3
f 153/2/3 151/2/3 150/2/3
f 154/1/3 152/1/3 151/1/3
f 154/2/3 151/2/3 153/2/3
f 155/1/3 152/1/3 154/1/3
f 156/1/3 152/1/3 155/1/3
f 158/1/3 157/1/3 156/1/3
f 159/1/3 157/1/3 158/1/3
f 161/1/3 160/1/3 159/1/3
f 162/1/3 160/1/3 161/1/3
f 164/1/3 163/1/3 162/1/3
f 165/1/3 163/1/3 164/1/3
f 167/1/3 166/1/3 165/1/3
f 168/1/3 166/1/3 167/1/3
f 170/1/3 169/1/3 168/1/3
f 171/1/3 169/1/3 170/1/3
f 173/1/3 172/1/3 171/1/3
f 174/1/3 172/1/3 173/1/3
f 176/1/3 175/1/3 174/1/3
f 177/1/3 175/1/3 176/1/3
f 179/1/3 178/1/3 177/1/3
f 180/1/3 178/1/3 179/1/3
f 182/1/3 181/1/3 180/1/3
f 183/1/3 181/1/3 182/1/3
f 186/3/3 185/3/3 184/3/3
f 187/3/3 185/3/3 186/3/3
f 190/3/3 189/3/3 188/3/3
f 191/3/3 189/3/3 190/3/3
f 194/3/3 193/3/3 192/3/3
f 195/3/3 193/3/3 194/3/3
f 198/3/3 197/3/3 196/3/3
f 199/3/3 197/3/3 198/3/3
f 202/3/3 201/3/3 200/3/3
f 203/3/3 201/3/3 202/3/3
f 206/2/3 205/2/3 204/2/3
f 208/2/3 206/2/3 204/2/3
f 208/2/3 207/2/3 206/2/3
f 209/2/3 207/2/3 208/2/3
f 210/2/4 211/2/4 212/2/4
f 210/2/4 212/2/4 214/2/4
f 212/2/4 213/2/4 214/2/4
f 214/2/4 213/2/4 215/2/4
f 216/3/4 217/3/4 218/3/4
f 218/3/4 217/3/4 219/3/4
f 220/3/4 221/3/4 222/3/4
f 222/3/4 221/3/4 223/3/4
f 224/3/4 225/3/4 226/3/4
f 226/3/4 225/3/4 227/3/4
f 228/3/4 229/3/4 230/3/4
f 230/3/4 229/3/4 231/3/4
f 232/3/4 233/3/4 234/3/4
f 234/3/4 233/3/4 235/3/4
f 236/2/4 237/2/4 239/2/4
f 237/1/4 238/1/4 239/1/4
f 239/1/4 238/1/4 240/1/4
f 236/2/4 239/2/4 242/2/4
f 239/2/4 240/2/4 242/2/4
f 240/1/4 241/1/4 243/1/4
f 242/2/4 240/2/4 243/2/4
f 243/1/4 241/1/4 244/1/4
f 244/1/4 241/1/4 245/1/4
f 245/1/4 246/1/4 247/1/4
f 247/1/4 246/1/4 248/1/4
f 248/1/4 249/1/4 250/1/4
f 250/1/4 249/1/4 251/1/4
f 251/1/4 252/1/4 253/1/4
f 253/1/4 252/1/4 254/1/4
f 254/1/4 255/1/4 256/1/4
f 256/1/4 255/1/4 257/1/4
f 257/1/4 258/1/4 259/1/4
f 259/1/4 258/1/4 260/1/4
f 260/1/4 261/1/4 262/1/4
f 262/1/4 261/1/4 263/1/4
f 263/1/4 264/1/4 265/1/4
f 265/1/4 264/1/4 266/1/4
f 266/1/4 267/1/4 268/1/4
f 268/1/4 267/1/4 269/1/4
f 269/1/4 270/1/4 271/1/4
f 271/1/4 270/1/4 272/1/4
f 275/2/5 274/2/5 273/2/5
f 276/2/5 274/2/5 275/2/5
f 277/2/5 274/2/5 276/2/5
f 280/3/5 277/3/5 276/3/5
f 281/3/5 277/3/5 280/3/5
f 282/3/5 279/3/5 278/3/5
f 283/3/5 279/3/5 282/3/5
f 288/3/5 285/3/5 284/3/5
f 289/3/5 285/3/5 288/3/5
f 290/3/5 287/3/5 286/3/5
f 291/3/5 287/3/5 290/3/5
f 296/2/5 275/2/5 273/2/5
f 297/3/5 293/3/5 292/3/5
f 298/3/5 293/3/5 297/3/5
f 299/3/5 295/3/5 294/3/5
f 300/3/5 295/3/5 299/3/5
f 301/2/5 298/2/5 297/2/5
f 301/2/5 296/2/5 273/2/5
f 301/2/5 297/2/5 296/2/5
f 302/2/5 298/2/5 301/2/5
f 305/1/5 304/1/5 303/1/5
f 306/1/5 304/1/5 305/1/5
f 311/1/5 308/1/5 307/1/5
f 312/1/5 310/1/5 309/1/5
f 313/1/5 308/1/5 311/1/5
f 314/1/5 312/1/5 309/1/5
f 314/1/5 313/1/5 312/1/5
f 315/1/5 308/1/5 313/1/5
f 315/1/5 313/1/5 314/1/5
f 316/1/5 314/1/5 309/1/5
f 317/1/5 308/1/5 315/1/5
f 318/1/5 316/1/5 309/1/5
f 318/1/5 317/1/5 316/1/5
f 319/1/5 308/1/5 317/1/5
f 319/1/5 317/1/5 318/1/5
f 320/1/5 318/1/5 309/1/5
f 321/1/5 318/1/5 320/1/5
f 322/1/5 308/1/5 319/1/5
f 323/1/5 308/1/5 322/1/5
f 324/1/5 308/1/5 323/1/5
f 327/1/5 326/1/5 325/1/5
f 328/1/5 326/1/5 327/1/5
f 331/1/5 330/1/5 329/1/5
f 332/1/5 330/1/5 331/1/5
f 335/1/5 334/1/5 333/1/5
f 336/1/5 334/1/5 335/1/5
f 339/1/5 338/1/5 337/1/5
f 340/1/5 338/1/5 339/1/5
f 343/1/5 342/1/5 341/1/5
f 344/1/5 342/1/5 343/1/5
f 347/1/5 346/1/5 345/1/5
f 348/1/5 346/1/5 347/1/5
f 351/1/5 350/1/5 349/1/5
f 352/1/5 350/1/5 351/1/5
f 355/1/5 354/1/5 353/1/5
f 356/1/5 354/1/5 355/1/5
f 359/1/5 358/1/5 357/1/5
f 360/1/5 358/1/5 359/1/5
f 361/1/5 359/1/5 357/1/5
f 362/1/5 358/1/5 360/1/5
f 363/1/5 361/1/5 357/1/5
f 363/1/5 362/1/5 361/1/5
f 364/1/5 358/1/5 362/1/5
f 364/1/5 362/1/5 363/1/5
f 365/1/5 363/1/5 357/1/5
f 366/1/5 358/1/5 364/1/5
f 367/1/5 365/1/5 357/1/5
f 367/1/5 366/1/5 365/1/5
f 368/1/5 358/1/5 366/1/5
f 368/1/5 366/1/5 367/1/5
f 369/1/5 367/1/5 357/1/5
f 370/1/5 358/1/5 368/1/5
f 371/1/5 369/1/5 357/1/5
f 371/1/5 370/1/5 369/1/5
f 372/1/5 358/1/5 370/1/5
f 372/1/5 370/1/5 371/1/5
f 373/1/6 374/1/6 375/1/6
f 375/1/6 374/1/6 376/1/6
f 377/1/6 378/1/6 379/1/6
f 379/1/6 378/1/6 380/1/6
f 381/1/6 382/1/6 383/1/6
f 383/1/6 382/1/6 384/1/6
f 385/1/6 386/1/6 387/1/6
f 387/1/6 386/1/6 388/1/6
f 389/1/6 390/1/6 391/1/6
f 391/1/6 390/1/6 392/1/6
f 393/1/6 394/1/6 395/1/6
f 395/1/6 394/1/6 396/1/6
f 397/1/6 398/1/6 399/1/6
f 399/1/6 398/1/6 400/1/6
f 401/1/6 402/1/6 403/1/6
f 403/1/6 402/1/6 404/1/6
f 405/1/6 406/1/6 407/1/6
f 407/1/6 406/1/6 408/1/6
f 409/1/6 410/1/6 411/1/6
f 411/1/6 410/1/6 412/1/6
f 413/1/6 414/1/6 415/1/6
f 415/1/6 414/1/6 416/1/6
